<?xml version="1.0" encoding="UTF-8"?>
<svg viewBox="0 0 568.03 238.99" xmlns="http://www.w3.org/2000/svg">
 <defs>
  <filter id="a" x="-.45683" y="-.12056" width="1.9137" height="1.2411">
   <feGaussianBlur stdDeviation="6.379102"/>
  </filter>
 </defs>
 <g fill-rule="evenodd" stroke="#000" stroke-width="2">
  <g fill="#ff007f">
   <path d="m78.746 59.038l3.9141-53.54 414.84 3.1925 2.15 140.6-422.66 8.6462 1.7641-98.9z" fill-opacity=".982"/>
   <path d="m64.476 150.96s111.12 5.8982 221.56 5.8982c110.43 0 220.17-5.8982 220.17-5.8982l0.0784 59.212s-130.39 5.9707-217.77 5.5876c-86.762-0.38312-222.68-7.1201-222.68-7.1201l-1.3508-57.679z"/>
   <path d="m273.65 20.3c6.6886-0.3735 15.441 0.20351 22.988 1.5915 1.5418 0.28355 2.574 10.572 2.7703 12.201 0.85236 7.0745 2.5926 12.714 1.1199 19.275-1.0185 4.5371-0.89105 9.5148-0.94308 14.146-0.11804 10.507 2.0378 26.541 4.0081 36.84 1.1123 5.8144 0.11789 11.084 0.11789 17.094v11.73c0 4.2718-2.0852 5.6699-5.3638 7.8395-4.098 2.7119-15.403 4.0815-20.217 5.1281-10.654 2.3162-5.4764-20.073-4.8333-24.874 1.2292-9.1778 0.70773-20.68-0.35364-29.944-1.0548-9.2053-0.94312-18.425-0.94312-27.704 0-9.9873 0.51446-20.03 1.8272-29.826 0.69058-5.1527 1.0823-8.3985-0.17682-13.498z" filter="url(#a)"/>
   <path d="m85.536 11.329c17.47-5.1559 34.523 1.1748 52.256-2.3525 16.404-0.39615 32.763-1.3141 48.85-4.5228 14.385-0.51892 27.988 9.7248 41.333 9.2383 8.7574-0.31927 11.891 0.89736 24.112-1.1192 9.8573-1.0644 16.604-0.52559 31.792-0.65912-1.8629 15.612-3.9812 34.583 1.6987 50.054 5.1696 20.66-0.056671 41.773-1.6426 62.398 1.9206 12.238-20.003 7.3843-28.805 9.1447-19.31-0.86704-39.307 2.1001-57.966-4.5567-19.708-4.065-40.313-0.33093-59.843-4.6649-13.81-4.3092-28.865-1.684-42.426-7.2348-10.873-1.4121-27.078 3.0027-18.574-14.099 3.847-14.932 1.77-30.93 7.183-45.559 4.3091-15.772-0.39717-30.699 2.0323-46.067z"/>
   <path d="m288.57 9.8605c2.0282-7.1394 37.899-3.456 45.858-3.8314 15.181-0.71608 30.554 0.438 45.563 2.3578 6.3362 0.81045 11.034 1.395 18.213 0.64839 12.032-1.2514 24.609 0.89426 36.604 1.2968 7.6446 0.25655 15.766 0.58135 23.341 1.4147 6.8111 0.74922 13.886 1.8862 20.748 1.8862 5.4893 0 6.1966 1.3756 10.904-0.88415 1.3466-0.64635 0.88879 12.402 0.53052 15.149-1.5116 11.589-6.023 23.568-3.7723 35.072 1.5906 8.1299 6.8361 15.043 9.3719 22.752 1.9896 6.0486 1.2968 13.625 1.2968 19.923 0 3.5601 1.002 8.2052 1.002 11.907 0 2.0617-27.349 2.122-29.707 2.122-15.045 0-30.131-1.1426-45.15-0.29471-10.516 0.59366-17.549 5.6039-27.88 7.309-12.386 2.0443-24.812 1.9708-37.134 5.305-8.3763 2.2666-18.951 2.122-27.526 2.122-11.39 0-20.461 1.0323-31.358-0.76627-3.0892-0.50989-6.8273-0.47385-9.313-1.002-1.4587-0.31 0.94958-18.859 1.1199-20.748 0.81323-9.0196 3.4313-17.031-0.88412-25.346-3.8569-7.4317-6.9496-13.397-3.5955-20.571 3.4445-7.3676 4.4348-15.774 2.6524-23.695-1.5864-7.0508 0.90509-15.611 1.7683-22.752 0.38962-3.2233-2.001-6.1914-2.6524-9.3721z"/>
   <path d="m68.425 76.051c3.0749-0.40045 6.4942 1.4011 9.6069 2.2783 3.2024 0.9025 5.8031 3.625 6.5663 6.8436 0.90836 3.831-1.5309 8.0053-1.2821 11.894 0.15828 2.4731 1.5834 6.4919 3.3091 8.247 2.4738 2.5158 8.3464 3.0313 11.573 3.803 4.5382 1.0852 9.1663 1.5971 13.73 2.5295 3.5088 0.71686 7.657-0.15 10.846 1.5507 1.4691 0.78354 1.7905 1.3296 3.0146 2.3563 1.5742 1.3203 1.3514 5.697 1.3514 7.58 0 5.1411-5.6549 2.9477-8.7839 2.4082-6.9048-1.1905-13.695-2.1454-20.678-2.7721-5.9462-0.53363-11.858-1.2406-17.81-1.7325-5.2319-0.4324-13.699 0.28757-16.459-5.2323-1.8632-3.7264 0.15411-9.2079 1.3254-12.856 1.2682-3.9497 1.3341-8.1234 1.3341-12.232 0-3.1056-0.098709-6.5259-0.38116-9.633-0.1395-1.5345-0.042053-3.1107 1.0049-4.1061 0.30617-0.29114 0.6375-0.76872 0.84894-0.98758 0.043076-0.044579 0.10973 0.05777 0.88359 0.060638z"/>
   <path d="m3.7748 69.728c-7.1896 17.892 4.0323 123.9 7.2115 146.58 15.99 2.531 41.575 2.3408 51.758 3.0721 0.42694-24.126 3.5222-47.209 4.8969-54.532 4.9408-14.669-0.5385-21.684 2.087-34.137 2.333-15.805 7.5144-50.158 3.7027-54.078-3.6564-3.7603-19.708-4.8218-27.996-5.1429-20.229-1.8574-23.382-3.1864-41.66-1.7595z"/>
   <path d="m69.522 153.11l0.4985-15.637 2.0057-19.587s25.821 0.24612 51.332 4.0072c26.436 3.8974 27.698 7.0099 54.268 9.8471 24.263 2.5909 29.775 6.3198 56.495 6.6221 24.57 0.27634 39.076 0.38086 49.667-0.32904 1.5577 5.4554 3.0909 3.222 3.762 6.9896 0.67117 3.7676-1.8836 4.4526-1.8836 4.4526l-1.7403 5.8864 1.414 9.6142s-24.981-0.80133-49.796-1.2434c-24.815-0.44205-35.942 0.38681-58.212-2.8562-17.197-2.5042-107.81-7.766-107.81-7.766z"/>
  </g>
  <path d="m25.533 216.48c1.433 3.3541 2.4126 6.9694 1.7837 10.632-0.01486 3.2315 0.73624 8.076 1.1101 11.266 6.2763-1.4385 12.293 0.78647 18.592 0.50348 1.7955-2.7893 1.363-8.1928 2.3001-11.348 0.42551-3.1585 2.0158-6.3888 2.1983-9.3887-3.2288-0.099426-6.5934 0.20526-9.8927-0.17703-4.7081-0.31821-9.3913-0.92654-14.1-1.2376"/>
  <path d="m519.35 219.23c1.8953 3.1163 3.3789 6.5556 3.2772 10.27 0.44482 3.2008 1.877 7.8893 2.7006 10.993 6.0079-2.3162 12.28-0.9693 18.475-2.145 1.3807-3.0163 0.18433-8.3033 0.66333-11.56-0.027832-3.187 1.087-6.6105 0.84119-9.6059-3.2101 0.36066-6.4972 1.1406-9.8174 1.2313-4.7055 0.35443-9.4276 0.41809-14.133 0.7796"/>
  <g fill="#ff007f">
   <path d="m472.51 91.748c3.6143-2.5728 9.9658-5.4143 14.585-8.4006 2.0049-1.2961 3.4353-2.4807 5.6977-3.5064 4.408-1.9983 4.7867 1.541 5.3812 4.943 0.73743 4.2198 2.2474 8.4245 3.6767 12.418 1.3534 3.7817 1.4881 7.9564 1.2662 11.907-0.20056 3.5702-1.0215 6.7406-0.56006 10.349 0.27228 2.1286-5.7457 2.566-7.5969 2.995-7.8021 1.8078-16.083 2.2531-24.057 2.7515-5.0801 0.3175-9.8416-2.0747-14.439-3.8472-4.313-1.6629-9.7388-1.287-14.147-0.36523-5.0336 1.0525-10.358 0.081116-8.7414-6.5257 0.98834-4.0393 8.5887-8.7971 12.102-10.056 5.4545-1.9554 9.4065-3.7561 14.05-7.1831 3.3258-2.4548 5.9501-4.5682 9.9345-6.1118 1.468-0.5687 0.42511-0.42556 2.8488 0.63309z"/>
   <path d="m494.84 80.664c1.4476 22.668 10.362 108.3 13.031 139.96 15.4 0.0466 41.54-3.2623 51.216-4.0722 3.5521-23.676 3.5058-36.746 5.0882-54.696 1.3098-14.856 1.0465-20.541 1.669-32.805-0.14868-15.417 7.741-51.264 3.5788-54.438-3.9926-3.0447-27.341 0.63911-35.177 1.5598-19.283 1.2231-22.443 0.42252-39.406 4.4889z"/>
   <path d="m285.53 165.06s0.023254-1.1102 0.064819-3.003c0.041534-1.8928-1.3324-5.1415-1.2593-8.2716 0.07312-3.1301 4.3175-3.704 4.4122-7.416 0.094696-3.712-1.7202-3.9769-0.18008-7.9021 15.788 2.6517 43.475-2.3177 55.409-2.2596 17.917 0.082977 30.093-2.4018 45.926-5.4563 33.356-6.4349 34.024-6.5244 58.883-10.327 26.566-4.0636 47.421-3.903 47.421-3.903l3.5577 39.211s-80.803 3.5523-107.04 5.7044c-26.085 2.1399-51.497 3.566-71.601 3.5897-20.104 0.023773-35.596 0.03299-35.596 0.03299z"/>
  </g>
  <g fill="#fff">
   <path d="m358.91 128.58c7.947-4.369 22.042-8.085 28.316-15.984 11.35-5.391 17.105-13.165 24.72-18.795 19.459-12.872 31.442-19.266 53.639-25.026 14.726-3.3024 30.291-3.8455 45.195-3.1811 10.651-0.6999 21.363-1.5405 31.789 0.2374-7.569 4.6498-14.455 11.675-23.757 12.674-8.197 3.04-19.152 0.2807-24.607 8.6829-4.864 7.9694-10.686 15.576-19.979 18.601-10.933 4.634-21.567 9.959-32.609 14.316-13.11 1.814-26.158 3.942-39.209 6.091-13.67 0.636-26.48 4.901-40.313 5.533-2.751 2.112-7.863-1.798-3.185-3.149z"/>
   <path d="m358.52 130.31c15.374-4.0009 32.968-15.608 48.826-18.119 25.657-9.5539 50.446-21.238 75.209-32.884 14.07-6.4511 30.067-6.8148 44.223-13.212 4.8868-1.2127 9.9531-1.707 14.982-1.4397"/>
   <path d="m46.062 54.267c7.7597 1.3218 15.395 3.3273 23.043 5.0364 6.2114-0.43866 12.642-0.23782 17.648 3.9951 7.2809 4.0331 14.45 9.4559 17.093 17.705 3.0718 6.45 4.967 13.51 8.2229 19.801 2.3177 3.8275 16.429 11.308 16.847 14.175-7.108-1.0497-32.234-3.1448-38.943-4.4658-12.638-1.8016-13.352-4.4542-11.797-13.689-0.12958-5.11-1.2351-3.2808-0.014969-12.874 0.74651-6.7246-6.8179-14.473-13.314-13.56-10.038-1.3231-18.484-2.9895-20.084-12.176-0.17802-1.4491 0.6059-2.7516 1.2984-3.9476z"/>
   <path d="m46.622 55.821c6.2602-1.1047 10.795 4.0654 15.965 6.5819 7.4227 4.3711 15.532 7.839 22.114 13.441 3.6297 4.6705 7.6839 8.923 11.868 13.082 3.7265 4.3387 7.0543 8.9461 9.9049 13.894 3.008 4.2235 6.6928 7.9451 11.27 10.468l10.266 2.1466"/>
   <path d="m86.984-226.68z"/>
  </g>
 </g>
</svg>
