<?xml version="1.0" encoding="UTF-8"?>
<svg viewBox="0 0 508.93 506.32" xmlns="http://www.w3.org/2000/svg">
 <g fill="none" stroke="#1a1a1a" stroke-linecap="round" stroke-width="3">
  <path d="m252.17 230.91h193.23"/>
  <path d="m252.17 230.91l186.65-51.61"/>
  <path d="m252.17 230.91l167.34-99.704"/>
  <path d="m252.17 230.91l136.63-141"/>
  <path d="m252.17 230.91l96.615-172.69"/>
  <path d="m252.17 230.91l50.012-192.61"/>
  <path d="m445.41 230.91c-13.948-18.936-13.092-35.69-6.5842-51.61-28.843-25.281-17.275-33.881-19.304-48.093-31.907-9.2935-26.115-26.368-30.708-41.299-33.672 2.0262-34.466-16.306-40.02-31.69-18.215 6.4282-39.019-5.4622-46.604-19.921-21.58 14.817-39.049 12.668-52.324-6.7947"/>
  <path d="m249.86 230.91v-199.41"/>
  <path d="m422.69 231.05c-12.337-16.75-11.58-31.569-5.8239-45.651-25.512-22.362-15.28-29.969-17.075-42.54-28.223-8.2206-23.1-23.323-27.162-36.53-29.784 1.7923-30.486-14.423-35.399-28.031-16.112 5.6859-34.514-4.8316-41.223-17.621-19.088 13.106-34.54 11.205-46.282-6.0101"/>
  <path d="m398.97 231.19c-10.655-14.465-10.001-27.264-5.0297-39.425-22.033-19.312-13.196-25.882-14.746-36.739-24.374-7.0994-19.949-20.142-23.458-31.548-25.722 1.5477-26.328-12.456-30.571-24.208-13.915 4.9105-29.807-4.1727-35.601-15.218-16.485 11.319-29.83 9.6772-39.97-5.1905"/>
  <path d="m376.52 231.33c-9.0631-12.304-8.5071-23.191-4.2784-33.536-18.742-16.427-11.225-22.015-12.544-31.251-20.733-6.0389-16.969-17.134-19.954-26.835-21.88 1.3166-22.395-10.595-26.004-20.592-11.836 4.177-25.354-3.5492-30.283-12.944-14.022 9.628-25.374 8.2316-34-4.415"/>
  <path d="m340.84 231.46c-6.5274-8.8617-6.127-16.702-3.0814-24.152-13.498-11.831-8.0844-15.855-9.034-22.506-14.932-4.3492-12.222-12.34-14.371-19.327-15.758 0.94827-16.13-7.6307-18.729-14.83-8.5246 3.0082-18.261-2.5563-21.81-9.3225-10.099 6.934-18.275 5.9283-24.487-3.1797"/>
  <path d="m356.44 231.46c-7.64-10.372-7.1713-19.55-3.6065-28.27-15.799-13.848-9.4625-18.559-10.574-26.344-17.477-5.0906-14.305-14.443-16.821-22.622-18.444 1.1099-18.879-8.9317-21.921-17.358-9.9776 3.5212-21.373-2.992-25.528-10.912-11.82 8.1163-21.39 6.9392-28.661-3.7218"/>
  <path d="m320.02 231.67c-5.0566-6.8651-4.7464-12.939-2.387-18.711-10.457-9.1653-6.2628-12.283-6.9984-17.436-11.568-3.3693-9.4678-9.5593-11.133-14.972-12.208 0.73457-12.495-5.9114-14.509-11.489-6.6038 2.3304-14.146-1.9802-16.896-7.2222-7.8235 5.3719-14.157 4.5926-18.97-2.4633"/>
  <path d="m304.54 231.76c-3.959-5.3749-3.7161-10.13-1.8689-14.649-8.1868-7.1758-4.9033-9.6168-5.4792-13.651-9.0566-2.6379-7.4126-7.4842-8.7162-11.722-9.5576 0.57504-9.7828-4.6283-11.359-8.9949-5.1702 1.8245-11.075-1.5505-13.228-5.6545-6.1252 4.2058-11.084 3.5958-14.852-1.9286"/>
  <path d="m284.08 231.89c-2.5081-3.4051-2.3542-6.4177-1.184-9.2806-5.1865-4.546-3.1064-6.0924-3.4712-8.6482-5.7375-1.6712-4.696-4.7414-5.5219-7.4263-6.0549 0.36438-6.1976-2.9321-7.1963-5.6985-3.2754 1.156-7.0164-0.98215-8.3802-3.5821-3.8804 2.6644-7.0218 2.2779-9.4089-1.2218"/>
  <g transform="matrix(-.77072 0 0 .79536 918.3 -62.047)">
   <path d="m868.76 369.37h250.71"/>
   <path d="m868.76 369.37l242.17-64.89"/>
   <path d="m868.76 369.37l217.12-125.36"/>
   <path d="m868.76 369.37l177.28-177.28"/>
   <path d="m868.76 369.37l125.36-217.12"/>
   <path d="m868.76 369.37l64.89-242.17"/>
   <path d="m1119.5 369.37c-18.097-23.808-16.987-44.873-8.5428-64.89-37.423-31.785-22.414-42.598-25.046-60.467-41.399-11.685-33.884-33.152-39.843-51.925-43.689 2.5475-44.719-20.501-51.925-39.843-23.634 8.0822-50.627-6.8676-60.468-25.046-27.999 18.629-50.665 15.927-67.89-8.5429"/>
   <path d="m865.76 369.37v-250.71"/>
   <path d="m1090 369.55c-16.007-21.059-15.025-39.692-7.5565-57.397-33.102-28.116-19.826-37.68-22.154-53.486-36.619-10.336-29.972-29.324-35.243-45.929-38.645 2.2534-39.555-18.134-45.929-35.243-20.905 7.1489-44.781-6.0747-53.486-22.155-24.766 16.478-44.816 14.088-60.051-7.5565"/>
   <path d="m1059.2 369.73c-13.824-18.187-12.976-34.278-6.5259-49.57-28.588-24.281-17.122-32.541-19.133-46.191-31.625-8.926-25.884-25.325-30.436-39.665-33.374 1.9459-34.161-15.661-39.666-30.436-18.054 6.174-38.674-5.2463-46.191-19.133-21.389 14.231-38.704 12.167-51.861-6.526"/>
   <path d="m1030.1 369.9c-11.759-15.47-11.038-29.158-5.5512-42.165-24.317-20.654-14.564-27.68-16.275-39.291-26.9-7.5926-22.018-21.542-25.89-33.74-28.389 1.6554-29.058-13.321-33.74-25.89-15.357 5.2517-32.897-4.4624-39.291-16.275-18.194 12.105-32.922 10.35-44.114-5.551"/>
   <path d="m983.8 370.07c-8.4693-11.142-7.9496-20.999-3.998-30.367-17.514-14.875-10.49-19.935-11.722-28.297-19.374-5.4683-15.858-15.514-18.646-24.3-20.446 1.1923-20.928-9.594-24.3-18.646-11.06 3.7822-23.693-3.214-28.298-11.721-13.104 8.7181-23.711 7.4536-31.772-3.9978"/>
   <path d="m1004 370.07c-9.9128-13.041-9.3047-24.58-4.6794-35.544-20.499-17.411-12.277-23.334-13.72-33.122-22.677-6.4004-18.56-18.16-21.825-28.442-23.931 1.3955-24.495-11.23-28.442-21.825-12.946 4.4272-27.732-3.7618-33.122-13.72-15.337 10.205-27.753 8.7246-37.187-4.6794"/>
   <path d="m956.78 370.33c-6.5608-8.6315-6.1583-16.268-3.0971-23.525-13.567-11.524-8.1259-15.444-9.0804-21.922-15.009-4.2362-12.284-12.019-14.445-18.825-15.839 0.92358-16.212-7.4324-18.825-14.445-8.5682 2.93-18.354-2.4898-21.922-9.0804-10.151 6.754-18.368 5.7743-24.613-3.097"/>
   <path d="m936.7 370.45c-5.1367-6.7578-4.8215-12.737-2.4248-18.418-10.622-9.0221-6.362-12.091-7.1092-17.163-11.751-3.3166-9.6177-9.4099-11.309-14.738-12.401 0.72302-12.693-5.8191-14.738-11.309-6.7083 2.294-14.37-1.9495-17.163-7.1094-7.9474 5.288-14.381 4.521-19.27-2.4248"/>
   <path d="m910.15 370.6c-3.2542-4.2812-3.0546-8.069-1.5362-11.668-6.7294-5.7157-4.0304-7.6599-4.5038-10.873-7.4443-2.1012-6.093-5.9613-7.1646-9.337-7.8561 0.45813-8.0413-3.6865-9.337-7.1647-4.2499 1.4534-9.1038-1.2349-10.873-4.5038-5.0348 3.35-9.1106 2.864-12.208-1.5361"/>
  </g>
  <g transform="matrix(-.77072 0 0 -.79536 918.3 1838)">
   <path d="m868.76 2019.7h250.71"/>
   <path d="m868.76 2019.7l242.17-64.89"/>
   <path d="m868.76 2019.7l217.12-125.36"/>
   <path d="m868.76 2019.7l177.28-177.28"/>
   <path d="m868.76 2019.7l125.36-217.12"/>
   <path d="m868.76 2019.7l64.89-242.17"/>
   <path d="m1119.5 2019.7c-18.097-23.808-16.987-44.873-8.5428-64.89-37.423-31.785-22.414-42.598-25.046-60.467-41.399-11.685-33.884-33.152-39.843-51.925-43.689 2.5476-44.719-20.501-51.925-39.843-23.634 8.0823-50.627-6.8676-60.468-25.046-27.999 18.629-50.665 15.927-67.89-8.543"/>
   <path d="m865.76 2019.7v-250.71"/>
   <path d="m1090 2019.9c-16.007-21.059-15.025-39.692-7.5565-57.397-33.102-28.116-19.826-37.68-22.154-53.486-36.619-10.336-29.972-29.324-35.243-45.929-38.645 2.2534-39.555-18.134-45.929-35.243-20.905 7.1488-44.781-6.0747-53.486-22.155-24.766 16.478-44.816 14.088-60.051-7.5564"/>
   <path d="m1059.2 2020.1c-13.824-18.187-12.976-34.278-6.5259-49.57-28.588-24.281-17.122-32.541-19.133-46.191-31.625-8.926-25.884-25.325-30.436-39.665-33.374 1.9459-34.161-15.661-39.666-30.436-18.054 6.174-38.674-5.2462-46.191-19.133-21.389 14.231-38.704 12.167-51.861-6.526"/>
   <path d="m1030.1 2020.3c-11.759-15.47-11.038-29.158-5.5512-42.165-24.317-20.654-14.564-27.68-16.275-39.291-26.9-7.5926-22.018-21.542-25.89-33.74-28.389 1.6554-29.058-13.321-33.74-25.89-15.357 5.2517-32.897-4.4624-39.291-16.275-18.194 12.105-32.922 10.35-44.114-5.551"/>
   <path d="m983.8 2020.4c-8.4693-11.142-7.9496-20.999-3.998-30.367-17.514-14.875-10.49-19.935-11.722-28.297-19.374-5.4683-15.858-15.514-18.646-24.3-20.446 1.1923-20.928-9.594-24.3-18.646-11.06 3.7822-23.693-3.214-28.298-11.721-13.104 8.7181-23.711 7.4536-31.772-3.9978"/>
   <path d="m1004 2020.4c-9.9128-13.041-9.3047-24.58-4.6794-35.544-20.499-17.411-12.277-23.334-13.72-33.122-22.677-6.4004-18.56-18.16-21.825-28.442-23.931 1.3955-24.495-11.23-28.442-21.825-12.946 4.4272-27.732-3.7618-33.122-13.72-15.337 10.205-27.753 8.7246-37.187-4.6794"/>
   <path d="m956.78 2020.7c-6.5608-8.6315-6.1583-16.268-3.0971-23.525-13.567-11.524-8.1259-15.444-9.0804-21.922-15.009-4.2362-12.284-12.019-14.445-18.825-15.839 0.92358-16.212-7.4324-18.825-14.445-8.5682 2.93-18.354-2.4898-21.922-9.0804-10.151 6.754-18.368 5.7743-24.613-3.097"/>
   <path d="m936.7 2020.8c-5.1367-6.7578-4.8215-12.737-2.4248-18.418-10.622-9.0221-6.362-12.091-7.1092-17.163-11.751-3.3166-9.6177-9.4099-11.309-14.738-12.401 0.72302-12.693-5.8191-14.738-11.309-6.7083 2.2939-14.37-1.9495-17.163-7.1094-7.9474 5.288-14.381 4.521-19.27-2.4248"/>
   <path d="m910.15 2021c-3.2542-4.2812-3.0546-8.069-1.5362-11.668-6.7294-5.7157-4.0304-7.6599-4.5038-10.873-7.4443-2.1012-6.093-5.9613-7.1646-9.337-7.8561 0.45813-8.0413-3.6865-9.337-7.1647-4.2499 1.4534-9.1038-1.2349-10.873-4.5038-5.0348 3.35-9.1106 2.864-12.208-1.5361"/>
  </g>
  <g transform="matrix(.77072 0 0 -.79536 707.49 1838.8)">
   <path d="m-590.73 2019.7h250.71"/>
   <path d="m-590.73 2019.7l242.17-64.89"/>
   <path d="m-590.73 2019.7l217.12-125.36"/>
   <path d="m-590.73 2019.7l177.28-177.28"/>
   <path d="m-590.73 2019.7l125.36-217.12"/>
   <path d="m-590.73 2019.7l64.89-242.17"/>
   <path d="m-340.02 2019.7c-18.097-23.808-16.987-44.873-8.5428-64.89-37.423-31.785-22.414-42.598-25.046-60.467-41.399-11.685-33.884-33.152-39.843-51.925-43.689 2.5476-44.719-20.501-51.925-39.843-23.634 8.0823-50.627-6.8676-60.468-25.046-27.999 18.629-50.665 15.927-67.89-8.543"/>
   <path d="m-593.73 2019.7v-250.71"/>
   <path d="m-369.49 2019.9c-16.007-21.059-15.025-39.692-7.5565-57.397-33.102-28.116-19.826-37.68-22.154-53.486-36.619-10.336-29.972-29.324-35.243-45.929-38.645 2.2534-39.555-18.134-45.929-35.243-20.905 7.1488-44.781-6.0747-53.486-22.155-24.766 16.478-44.815 14.088-60.051-7.5564"/>
   <path d="m-400.28 2020.1c-13.824-18.187-12.976-34.278-6.5259-49.57-28.588-24.281-17.122-32.541-19.133-46.191-31.625-8.926-25.884-25.325-30.436-39.665-33.374 1.9459-34.161-15.661-39.666-30.436-18.054 6.174-38.674-5.2462-46.191-19.133-21.389 14.231-38.704 12.167-51.861-6.526"/>
   <path d="m-429.4 2020.3c-11.759-15.47-11.038-29.158-5.5511-42.165-24.317-20.654-14.564-27.68-16.275-39.291-26.9-7.5926-22.018-21.542-25.89-33.74-28.389 1.6554-29.058-13.321-33.74-25.89-15.357 5.2517-32.897-4.4624-39.291-16.275-18.194 12.105-32.922 10.35-44.114-5.551"/>
   <path d="m-475.69 2020.4c-8.4692-11.142-7.9496-20.999-3.998-30.367-17.514-14.875-10.49-19.935-11.722-28.297-19.374-5.4683-15.858-15.514-18.646-24.3-20.446 1.1923-20.928-9.594-24.3-18.646-11.06 3.7822-23.693-3.214-28.298-11.721-13.103 8.7181-23.711 7.4536-31.772-3.9978"/>
   <path d="m-455.46 2020.4c-9.9128-13.041-9.3047-24.58-4.6794-35.544-20.499-17.411-12.277-23.334-13.72-33.122-22.677-6.4004-18.56-18.16-21.825-28.442-23.931 1.3955-24.495-11.23-28.442-21.825-12.946 4.4272-27.732-3.7618-33.122-13.72-15.337 10.205-27.753 8.7246-37.187-4.6794"/>
   <path d="m-502.71 2020.7c-6.5609-8.6315-6.1584-16.268-3.0972-23.525-13.567-11.524-8.1259-15.444-9.0804-21.922-15.009-4.2362-12.284-12.019-14.445-18.825-15.839 0.92358-16.212-7.4324-18.825-14.445-8.5682 2.93-18.354-2.4898-21.922-9.0804-10.151 6.754-18.368 5.7743-24.613-3.097"/>
   <path d="m-522.79 2020.8c-5.1367-6.7578-4.8215-12.737-2.4248-18.418-10.622-9.0221-6.362-12.091-7.1092-17.163-11.751-3.3166-9.6177-9.4099-11.309-14.738-12.401 0.72302-12.693-5.8191-14.738-11.309-6.7083 2.2939-14.37-1.9495-17.163-7.1094-7.9473 5.288-14.381 4.521-19.27-2.4248"/>
   <path d="m-549.34 2021c-3.2542-4.2812-3.0545-8.069-1.5361-11.668-6.7294-5.7157-4.0305-7.6599-4.5038-10.873-7.4443-2.1012-6.093-5.9613-7.1646-9.337-7.8562 0.45813-8.0413-3.6865-9.3371-7.1647-4.2498 1.4534-9.1038-1.2349-10.873-4.5038-5.0348 3.35-9.1107 2.864-12.208-1.5361"/>
  </g>
 </g>
</svg>
